/* XPM */
static char *ADJUSTMENT[] = {
/* width height num_colors chars_per_pixel */
"    43    43      107            2",
/* colors */
".. c #000000",
".# c #040404",
".a c #101010",
".b c #101010",
".c c #131313",
".d c #1c1c1c",
".e c #dfdfdf",
".f c #101010",
".g c #090909",
".h c #090909",
".i c #0d0d0d",
".j c #161616",
".k c #222222",
".l c #151515",
".m c #191919",
".n c #222222",
".o c #2e2e2e",
".p c #292929",
".q c #323232",
".r c #3e3e3e",
".s c #202020",
".t c #282828",
".u c #3f3f3f",
".v c #464646",
".w c #4d4d4d",
".x c #171717",
".y c #171717",
".z c #272727",
".A c #2f2f2f",
".B c #3c3c3c",
".C c #373737",
".D c #3f3f3f",
".E c #4c4c4c",
".F c #5a5a5a",
".G c #535353",
".H c #606060",
".I c #6e6e6e",
".J c #424242",
".K c #525252",
".L c #525252",
".M c #5b5b5b",
".N c #5f5f5f",
".O c #696969",
".P c #6f6f6f",
".Q c #797979",
".R c #606060",
".S c #5e5e5e",
".T c #646464",
".U c #616161",
".V c #646464",
".W c #6a6a6a",
".X c #707070",
".Y c #626262",
".Z c #686868",
".0 c #2a2a2a",
".1 c #2a2a2a",
".2 c #2e2e2e",
".3 c #3a3a3a",
".4 c #535353",
".5 c #6d6d6d",
".6 c #676767",
".7 c #737373",
".8 c #818181",
".9 c #7d7d7d",
"#. c #898989",
"## c #979797",
"#a c #a1a1a1",
"#b c #727272",
"#c c #7e7e7e",
"#d c #878787",
"#e c #7a7a7a",
"#f c #7e7e7e",
"#g c #808080",
"#h c #868686",
"#i c #828282",
"#j c #8a8a8a",
"#k c #8b8b8b",
"#l c #888888",
"#m c #8c8c8c",
"#n c #919191",
"#o c #9c9c9c",
"#p c #989898",
"#q c #969696",
"#r c #9e9e9e",
"#s c #a8a8a8",
"#t c #a9a9a9",
"#u c #aaaaaa",
"#v c #ababab",
"#w c #aaaaaa",
"#x c #acacac",
"#y c #aeaeae",
"#z c #404040",
"#A c #505050",
"#B c #595959",
"#C c #979797",
"#D c #9f9f9f",
"#E c #adadad",
"#F c #b7b7b7",
"#G c #c5c5c5",
"#H c #d3d3d3",
"#I c #e1e1e1",
"#J c #b8b8b8",
"#K c #cacaca",
"#L c #dadada",
"#M c #eaeaea",
"#N c #dedede",
"#O c #fafafa",
/* pixels */
".e.e.e.e.e.e#t#g.W.M.v.O.O.O.v.M.W#n#s.e.e.e.e.e.e.e.e.e.e.e.e.e#s.Z.X.N.6.D.R#f.e.e.e",
".e.e.e.e#g.W.v.E.E.r.E.E.H.E.8.H.8.H#c#k#s.e.e.e.e.e.e.e.e.e#s.w.7#.#N#O#O#N.6.D.D.e.e",
".e.e#x.T.M.r.E.E.E.5.E.F.E.8.H.8.H.8##.7#d#v.e.e.e.e.e.e.e#i.6#l#K#O#O#J#D#.#E#D.D.D.e",
".e#t.v.E.q.E.r.E.r.r.H.E.7.H.8.E.7.H.H.8.7#j#f.e.e.e.e.e#s.G#.#F#O#F#D#D#.#D#..G.....e",
"#w.W.E.r.E.E.E.E.8.5.E.8.H.8.H.8.7###E#.#E#.#j#v.e.e.e.e.P#b#O#O#F#G#D#.#G.D.....6.e.e",
"#g.E.q.E.E.E.r.E.E.E.8.H.8.H.8.7##.H.7#E#.###.#r.e.e.e#s.D#D#O#L#G#.#D.G.....q.e.e.e.e",
"#n.r.E.E.E.E.5.E.F.8.H.8.H.8.7##.7###E#.#E#.#E.7.e.e.e#i.6#O#O#O#D#D#....D.e.e.e.e.e.e",
".E.E.r.E.r.E.r.H.E.H.8.E.7.H.8.H.8.7#.###.#E#..7.e.e.e.U#D#O#D#O#D#.#D.G.e.e.e.e.e.e.e",
".8.E.E.E.8.E.5.E.8.8.H.8.7###.#E#.#E#E#.#E#.#G.E.e.e.e.Z#F#O#D#O#F#G#D.D.e.e.e.e.e.e.e",
".8.H.5.E.F.E.8.H.8.8.7##.7###.#E#.#E#E#.#E#..E.a.e.e.e.4#O#D.D..#O#N#...#e.e.e.e.e.e.e",
".H.7.H.8.E.7.H.8.E.H.8.H.8.7#E#.###.#.#E.H.B.d.j.e.e#i.G#O.q...D.G#O#D.A.t#s.e.e.e.e.e",
".8.7#E#.#E.7.8.H.8###.#E#.#E#.#E#.#E#C.E.o.d.o.j.e.e.V#D#O.6..#O#O#O#F.G..#e#G.e.e.e#D",
".H##.7###.#G#..8.7.H.8.7#E.7.8.7.7.q.d.j.d.k.d.k.e.e.N#F#N#..G#O.D.D#O.7.m.t.e.e#F#D.q",
".8.7#E#.#E#.#E#.##.8.E.F.E.E.o.B.n.o.o.a.o.j.o.a.e.e.6#O#D#D#...#O#O#O#D.N..#N#D#D#..A",
".H.7.7#E#.#E#.#E.H.H.H.r.E.r.E.d.n.d.d.j.d.k.d.j.e.e#F#F#D#.#D.D#O.q.D#D.G.m.m#D#..D..",
".8.7#E#.#G#E#E#.#E.8.E.8.E.E.o.B.n.o.o.j.o.d.o.j.e#f#O#D#.#G#D#D#.#G#D#J#G#D...D.A...4",
".H##.7###.#G#.##.7.H.I.E.E.q.r.n.o.d.d.j.d.k.d.k#f.D#D#.#D#.#D.q.D.D.G.D.m.s.#.....G.e",
".8.7#E#.#E#.#E#.##.8.E.F.E.E.o.B.n.o.o.a.o.j.o.S.4#O.D#N#D#D.D...........f.m.A.D.e.e.e",
".8.7#E#.#G#E#E#.#E.8.E.8.E.E.o.Y#F#N#O#F#N.9.6#O#D.D#G#D.D....#D#..6#.#D.....g#e.e.e.e",
".H##.7###.#G#.##.7.H.I.E.E.q.r.Y#N#F#F#N.6.G#O#D.q#D#D.q....#D.9#D.C#p#D#.#D.##e.e.e.e",
".8.7#E#.#E#.#E#.##.8.E.F.E.E.o.Y#F#N#N.6.4#O#D.D#E#G.D....#D.9#D#D.4#.#s#G#s.x#e.e.e.e",
".H.7.7#E#.#E#.#E.H.H.H.r.E.r.E.Y#N#F.6.G#O#D.q#D#F#D....#D.9#D#.#D.D#D#G#F#F.f#e.e.e.e",
".8.7#E#.#G#E#E#.#E.8.E.8.E.E.o.Y#F#N.6#O#D.D#G#G#D.D...0.1#z.2.3.1#B.2.1#B.2.z#e.e.e.e",
"#m##.7###.#G#.##.7.H.I.E.E.q.r.Y#N.6#O#D.q#D#F#D.q..#s.G#F#D#G#K#L#.#O#O#O#O.h#e.e.e.e",
"#x.Q#E#.#E#.#E#.##.8.E.F.E.E.o.Y.6.4#D.D#E#G#D.D....#s.7#F#J#K#L#M#D#O#O#O#O.z#e.e.e.e",
".e#k.H#E#.#E#.#E.H.H.H.r.E.r.E.p.G#O.q#D#F#D.q.....J.D.C.4.D.6.G.Y.D.Y.Y.Y.Y.h#e.e.e.e",
".e.e#s#k.P#E#.##.7.H.I.E.E.n.G#O#D.q#F#D.q....#s#s#F#G#l#L#M#O#I#O#s#O#O#O#O.h#e.e.e.e",
".e.e.e.e#t#m#j#j##.8.E.F.n.4#O#D.D#E#D.D.....0.J.4.J.C.6.G.7.Y.Y.Y.Y.Y.Y.Y.Y.z#e.e.e.e",
".e.e.e.e.e.e#u#y#h.W.O.n.G#O#D.q#D#F.q....#D.y#D#D#J#L#.#O#I#O#O#O#s#O#O#O#O.h#e.e.e.e",
".e.e.e.e.e.e.e.e.e.e#f.6#O#D.D#G#G#D....#D#.#z#F#N#K#O#D#O#O#O#O#O#s#O#O#O#O.z#e.e.e.e",
".e.e.e.e.e.e.e.e.e#f.G#O#D.q#D#F#D.q...J.J.D.1.4.D.6.Y.Y.Y.Y.Y.Y.Y.Y.Y.Y.Y.Y.h#e.e.e.e",
".e.e.e.e.e.e.e.e.e.4#O#D.D#E#G#D.D..#D.9#D#p.0#K#L#M#O#E#O#O#O#O#O#s#O#O#O#O.z#e.e.e.e",
".e.e.e.e.e.e.e.e#f#O#D.q#D#F#D.q.....9#D#.#D.1#L#F#O#O#s#O#O#O#O#O#s#O#O#O#O.h#e.e.e.e",
".e.e.e.e.e.e.e#f.6#D.D#G#G#D.D.....J.6.J.4.D#B.6.7.6.Y.Y.Y.Y.Y.Y.Y.Y.Y.Y.Y.Y.z#e.e.e.e",
".e.e.e.e.e.e#f.G#O.q#D#F#D.q....#D.9#p#D#s#J.2#O#I#O#O#s#O#O#O#O#O#s#O#O#O#O.h#e.e.e.e",
".e.e.e.e#f.L#O#D#.#F#D.q.....e.J.D.C.D.6.G.Y.2.Y.Y.Y.Y.Y.Y.Y.Y.Y.Y.Y.Y.Y.Y.Y.h#e.e.e.e",
".e.e.e#f.6#O#D#.#G#D.D.....e.e.6#D#D#N#F#K#F#B#O#O#O#O#s#O#O#O#O#O#s#O#O#O#O.z#e.e.e.e",
".e.e#f.D#O.G...D#..q.....e.e.e.C#D#s#F#K#F#N.2#O#O#O#O#s#O#O#O#O#O#s#O#O#O#O.h#e.e.e.e",
".e.e#i.D#D......#D.....e.e.e.e.4.C.6.7.Y.Y.Y#A.Y.Y.Y.Y.Y.Y.Y.Y.Y.Y.Y.Y.Y.Y.Y.z#e.e.e.e",
".e.e#f...q#O#O.G.q...e.e.e.e.e.D#J#F#F#G#F#N.2#O#O#O#O#s#O#O#O#O#O#s#O#O#O#O.h#e.e.e.e",
".e.e#i.....D.4.D...e.e.e.e.e.e.6#F#K#O#F#N#F#B#O#O#O#O#s#O#O#O#O#O#s#O#O#O#O.z#e.e.e.e",
".e.e.e.D...........e.e.e.e.e.e.G.s.c.l.s.s.s.s.s.s.s.s.s.s.s.s.s.s.s.s.s.s.s.b#e.e.e.e",
".e.e.e.e.D.D.4.D.e.e.e.e.e.e.e.e#e#e#e#e#e#e#e#e#e#e#e#e#e#e#e#e#e#e#e#e#e#e#e#e.e.e.e"
};
