/* XPM */
static char *COMPARE[] = {
/* width height num_colors chars_per_pixel */
"    43    43      131            2",
/* colors */
".. c #272727",
".# c #dfdfdf",
".a c #0f0f0f",
".b c #111111",
".c c #141414",
".d c #161616",
".e c #1a1a1a",
".f c #1c1c1c",
".g c #171717",
".h c #191919",
".i c #1d1d1d",
".j c #1f1f1f",
".k c #222222",
".l c #242424",
".m c #272727",
".n c #272727",
".o c #2a2a2a",
".p c #2f2f2f",
".q c #252525",
".r c #272727",
".s c #2d2d2d",
".t c #2f2f2f",
".u c #323232",
".v c #343434",
".w c #373737",
".x c #373737",
".y c #3c3c3c",
".z c #3f3f3f",
".A c #383838",
".B c #3d3d3d",
".C c #404040",
".D c #474747",
".E c #545454",
".F c #232323",
".G c #252525",
".H c #454545",
".I c #484848",
".J c #4f4f4f",
".K c #525252",
".L c #4d4d4d",
".M c #505050",
".N c #525252",
".O c #575757",
".P c #5b5b5b",
".Q c #212121",
".R c #232323",
".S c #282828",
".T c #2a2a2a",
".U c #404040",
".V c #4d4d4d",
".W c #535353",
".X c #555555",
".Y c #585858",
".Z c #616161",
".0 c #636363",
".1 c #6b6b6b",
".2 c #6b6b6b",
".3 c #6e6e6e",
".4 c #454545",
".5 c #535353",
".6 c #585858",
".7 c #5b5b5b",
".8 c #5d5d5d",
".9 c #696969",
"#. c #6b6b6b",
"## c #717171",
"#a c #737373",
"#b c #767676",
"#c c #7b7b7b",
"#d c #797979",
"#e c #7b7b7b",
"#f c #818181",
"#g c #838383",
"#h c #8b8b8b",
"#i c #8e8e8e",
"#j c #7e7e7e",
"#k c #818181",
"#l c #898989",
"#m c #8b8b8b",
"#n c #919191",
"#o c #939393",
"#p c #969696",
"#q c #9c9c9c",
"#r c #9e9e9e",
"#s c #8e8e8e",
"#t c #969696",
"#u c #999999",
"#v c #9b9b9b",
"#w c #a1a1a1",
"#x c #a4a4a4",
"#y c #a6a6a6",
"#z c #acacac",
"#A c #9e9e9e",
"#B c #a1a1a1",
"#C c #a7a7a7",
"#D c #a9a9a9",
"#E c #acacac",
"#F c #b1b1b1",
"#G c #b4b4b4",
"#H c #b8b8b8",
"#I c #bcbcbc",
"#J c #b4b4b4",
"#K c #bcbcbc",
"#L c #bebebe",
"#M c #c3c3c3",
"#N c #c6c6c6",
"#O c #cbcbcb",
"#P c #cecece",
"#Q c #d3d3d3",
"#R c #c4c4c4",
"#S c #c9c9c9",
"#T c #cccccc",
"#U c #d1d1d1",
"#V c #d9d9d9",
"#W c #dbdbdb",
"#X c #dedede",
"#Y c #e9e9e9",
"#Z c #d6d6d6",
"#0 c #d9d9d9",
"#1 c #e1e1e1",
"#2 c #e3e3e3",
"#3 c #ececec",
"#4 c #efefef",
"#5 c #f1f1f1",
"#6 c #f7f7f7",
"#7 c #f9f9f9",
"#8 c #e9e9e9",
"#9 c #f4f4f4",
"a. c #f7f7f7",
"a# c #fcfcfc",
"aa c #ffffff",
/* pixels */
".#.#.#.#.#.#.#.#.#.#.#.#.#.#.#.#.#.#.#.#.#.#.#.#.#.#.#.#.#.#.#.#.#.#.#.#.#.#.#.#.#.#.#",
".#.#.#.#.#.#.#.#.#.#.#.#.#.#.#.#.#.#.#.#.#.#.#.#.#.#.#.#.#.#.#.#.#.#.#.#.#.#.#.#.#.#.#",
".#.#.#.#.#.#.#.#.#.#.#.#.#.#.#.#.#.#.#.#.#.#.#.#.#.#.#.#.#.#.#.#.#.#.#.#.#.#.#.#.#.#.#",
".#.#.#.#.#.#.#.#.#.#.#.#.#.#.#.#.#.#.#.#.#.#.#.#.#.#.#.#.#.#.#.#.#.#.#.#.#.#.#.#.#.#.#",
".#.#.#.#.#.#.#.#.#.#.#.#.#.#.#.#.#.#.#.#.#.#.#.#.#.#.#.#.#.#.#.#.#.#.#.#.#.#.#.#.#.#.#",
".#.#.##g.M.#.#.#.#.#.#.#.#.#.#.#.#.#.#.#.#.#.#.#.#.#.#.#.#.#.#.#.#.#.#.#.#.#.M#a.#.#.#",
".#.#.##g.B.H.Z.#.#.#.#.#.#.#.#.#.#.#.#.#.#.#.#.#.#.#.#.#.#.#.#.#.#.#.##a.X.X.C#a.#.#.#",
".#.#.##g.M#f#d.Z#a.#.#.#.#.#.#.#.#.#.#.#.#.#.#.#.#.#.#.#.#.#.#.##b#a.0#g#D#U#g#a.#.#.#",
".#.#.##g.X#n#w#C#w#n#o#n#n#l#g#e#a#d#g.#.#.#.#.#.##a#a#g#g#g#g#n#q#y#Iaa#9#9#l#a.#.#.#",
".#.##o.0.X#n#w#K#T#1#3#4#4#4#4#4#4#4#K#g#a#a.P.9#u#W#4#4#5a.a.a.aaaaaaaaa##4#g.M.I.0.#",
".1.N#g.0.X#n#f#l#T#1#1#4#4#4#4#9#9#4#K#l#a.C.u#d#J#1#4#9#9a.aaaaaaaaaa#G#z#9#l#d.M.V.N",
".E.w#N.0.X#n#n#a#g#K#4#4#4#4#4a##4#4#K#n#d.C.j###D#1#4#5a.#5#7aaaa#Q#x#o#W#4#g#a.M.M.k",
".K.v#W.0.X#n#w#J#J#u#n#g#f#f#g#o#I#2#K#n#d.C.r#.#J#2#S#N#o#g#g#g#o#x#M#4#9#3#g#d.I.V.b",
".E.w#W.0.X#n###a#M#1#4#4#4aa#X#p#c#h#q#n#f.C.t#a#4#z#c#xaa#7aaaaa.aaaa#r#q#4#g#a.M.L.b",
".K.v#W.0.X#n#w#f###w#1#3#4a.#4#4#9#4#f#n#d.C.s#d#4#9#4#4aa#9#4#4#9#O#h#n#9#3#l#d.M.V.b",
".E.w#W.0.X#n#n#C#K#w#q#x#s#s#H#r#O.T#J#n#d.C.t#a#4.9#P#O#U#l#G#i#r#G#W#2#W#4#g#a.M.M.b",
".K.v#W.0.X#n#g#d#C#U#1#s.F#s#W#L.4.R#l#n#f.C.x#d#2.8#O#O#U.5#l#2aa#4#W#o#z#4#g#d.I.V.b",
".E.w#W.0.X#n#w#n#n#U#s.S.T#s#R.4.Q.F#n#n#f.C.C#g#4.9.7#L#U.5.5#l#2#I#x#La##9#l#d.M.M.b",
".K.v#W.0.X#n#n#d#1.F.T.5#A.4.Q.R.F.R.8.7.8.8.8.8.7.8.8.7.8#A#C.5.6#kaa#h#U#2#g#d.I.V.b",
".E.w#W.0.X#n#w#U.8.R.6#J.4.F.S.F.R.F.F.R.F.S.F.F.T.F.F.T.F#j#D.W.7.X#d#2a##4#g#a.M.L.b",
".K.v#W.0.X#t#U.8.S.4#U.T.R.Q.S.R.S.R.R.S.R.S.Q.R.S.R.R.S.R#j#C.5.6.5.6#4#o#3#l#d.M.V.b",
".E.w#W.0.X#n#w#4.4.R.7#L.G.F.Q.G.R.F.G.R.F.R.G.F.R.G.F.R.G#j#B.5.7.X.5#o#4#2#g#a.M.M.b",
".K.v#W.0.X#t#u#J#9.F.T.9#A.T.S.R.F.R.4.U.4.4.4.4.4.4.4.4.4#j#C.5.6.8a.#4#3#3#g#d.I.V.b",
".E.w#W.0.X#t#d#d#D.4.F.T#j#s.4.F.R.F#1#4#1#W#W#1aa#1#W#1a.#W#s.W.9#1#4#o#z#4#g#a.M.L.b",
".K.v#W.0.X#u#w#l#g#W.5.Q.T#A#A.4.S.R#l#n#f.C.B#f#4.8.5#A#U.5.5#d#O#M#q#F#9#8#l#d.M.V.b",
".E.w#W.0.Y#u#l#u#K#K#1.8.G#s#4#u.T.F#C#n#f.C.B#d#4.9#x#W#U.5#d#W#P#O#2#O#O#2#g#d.M.M.b",
".K.v#W.0.X#t#w#w#w#u#x#w#v#0#O#E#O#K#w#n#f.C.B#f#4#O#U#V#9#G#q#w#x#z#G#V#9#9#l#d.M.V.b",
".E.w#W.0.X#u#D#K#Z#U#Q#W#Waa#P#o#g#q#w#n#f.H.B#f#4#I#g#yaa#4#W#W#4#4a.a.#9#2#g#a.M.M.b",
".K.v#W.0.Y#u#K#R#Z#1#2#4#4#4#2#4#W#2#f#n#f.C.B#d#g#o#0#4#4#9#9a.aaa.aa#9#8#3#g#d.I.V.b",
".E.w#W.0.X#n#F#K#Z#1#4#4#4#4#4#4#X#4#K#n#f.H.C#g#D#Y#4#4#5#5aaaaaaaaaa#5#4#2#g#a.M.L.b",
".K.v#W##.0#t#J#K#Z#1#2#4#4#4#4#2#2#4#K#n#f.C.B#f#J#4#4#4#9a.aaa.aaaa#9#G#h##.M#l.M.V.b",
".E.w#W#v#G#a#g#g#u#L#G#G#G#G#O#O#O#P#K#n#f.C.x#d#D#4#W#O#O#O#G#G#y#h#g.0.M.9#q#F.M.M.b",
".K.v#W#wa.#2#E#m#a.C.t.n.j.j.s.C.L.0#n#g#f.C.t#d#t#F.9.L.B.s.j.j.n.t.M#q#D#K#K#K.I.V.b",
".E.w#W#x#9#O#G#q#e.M.x.t.j.j.j.j.j.g.x.M##.B.t.0.M.x.g.j.j.j.j.j.t.x.L#d#f#n#w#K.M.M.b",
".E.w#W#a#d.M.C.t.n.j.n.j.j.j.j.j.j.j.j.j.C.A.j.B.j.j.b.j.n.t.j.j.k.j.j.s.t.H.I.Z.t.M.b",
".E.l.b.c.k.k.c.f.c.c.f.f.e.e.e.b.b.e.e.k.o.k.k.n.o.n.e.b.b.f.e.f.c.f.c.c.f.k.f.f.h.b.b",
".K.l.h.f.c.c.f.h.f.f.h.f.c.c.f.c.f.h.h.f.h.f.f.h.f.h.h.f.c.f.c.c.f.h.f.f.h.f.c.c.f.h.l",
".f.d.f.h.f.f.h.f.m.v.y.D.#.#.#.#.#.#.z.m.l.m.m.l.m.#.#.#.#.#.J.D.D.y.w.l.f.d.f.f.d.f.h",
".#.#.#.#.#.#.#.#.#.#.#.#.#.#.#.#.#.#.#.#.#.#.#.#.#.#.#.#.#.#.#.#.#.#.#.#.#.#.#.#.#.#.#",
".#.#.#.#.#.#.#.#.#.#.#.#.#.#.#.#.#.#.#.#.#.#.#.#.#.#.#.#.#.#.#.#.#.#.#.#.#.#.#.#.#.#.#",
".#.#.#.#.#.#.#.#.#.#.#.#.#.#.#.#.#.#.#.#.#.#.#.#.#.#.#.#.#.#.#.#.#.#.#.#.#.#.#.#.#.#.#",
".#.#.#.#.#.#.#.#.#.#.#.#.#.#.#.#.#.#.#.#.#.#.#.#.#.#.#.#.#.#.#.#.#.#.#.#.#.#.#.#.#.#.#",
".#.#.#.#.#.#.#.#.#.#.#.#.#.#.#.#.#.#.#.#.#.#.#.#.#.#.#.#.#.#.#.#.#.#.#.#.#.#.#.#.#.#.#"
};
