/* XPM */
static char *RUN[] = {
/* width height num_colors chars_per_pixel */
"    43    43      249            2",
/* colors */
".. c #7a7a7a",
".# c #afafaf",
".a c #adadad",
".b c #727272",
".c c #a7a7a7",
".d c #a5a5a5",
".e c #9e9e9e",
".f c #9d9d9d",
".g c #9b9b9b",
".h c #656565",
".i c #999999",
".j c #636363",
".k c #979797",
".l c #969696",
".m c #5e5e5e",
".n c #5d5d5d",
".o c #5d5d5d",
".p c #919191",
".q c #c5c5c5",
".r c #8d8d8d",
".s c #535353",
".t c #bcbcbc",
".u c #bababa",
".v c #838383",
".w c #818181",
".x c #8e8e8e",
".y c #484848",
".z c #797979",
".A c #adadad",
".B c #777777",
".C c #ababab",
".D c #aaaaaa",
".E c #747474",
".F c #a7a7a7",
".G c #6f6f6f",
".H c #b1b1b1",
".I c #323232",
".J c #9a9a9a",
".K c #656565",
".L c #999999",
".M c #cdcdcd",
".N c #989898",
".O c #dedede",
".P c #2b2b2b",
".Q c #959595",
".R c #5f5f5f",
".S c #5e5e5e",
".T c #929292",
".U c #5b5b5b",
".V c #a0a0a0",
".W c #242424",
".X c #595959",
".Y c #8d8d8d",
".Z c #575757",
".0 c #555555",
".1 c #bfbfbf",
".2 c #545454",
".3 c #888888",
".4 c #878787",
".5 c #cdcdcd",
".6 c #848484",
".7 c #cacaca",
".8 c #161616",
".9 c #7e7e7e",
"#. c #131313",
"## c #8d8d8d",
"#a c #7a7a7a",
"#b c #454545",
"#c c #c0c0c0",
"#d c #434343",
"#e c #bfbfbf",
"#f c #424242",
"#g c #f2f2f2",
"#h c #757575",
"#i c #3f3f3f",
"#j c #3f3f3f",
"#k c #3d3d3d",
"#l c #696969",
"#m c #686868",
"#n c #e2e2e2",
"#o c #2f2f2f",
"#p c #a8a8a8",
"#q c #616161",
"#r c #606060",
"#s c #d8d8d8",
"#t c #595959",
"#u c #232323",
"#v c #9e9e9e",
"#w c #1d1d1d",
"#x c #1b1b1b",
"#y c #cccccc",
"#z c #1a1a1a",
"#A c #191919",
"#B c #cacaca",
"#C c #949494",
"#D c #151515",
"#E c #121212",
"#F c #c2c2c2",
"#G c #8c8c8c",
"#H c #0f0f0f",
"#I c #434343",
"#J c #424242",
"#K c #404040",
"#L c #b9b9b9",
"#M c #b6b6b6",
"#N c #b4b4b4",
"#O c #b4b4b4",
"#P c #6b6b6b",
"#Q c #7a7a7a",
"#R c #333333",
"#S c #676767",
"#T c #acacac",
"#U c #dfdfdf",
"#V c #dddddd",
"#W c #717171",
"#X c #a6a6a6",
"#Y c #707070",
"#Z c #282828",
"#0 c #a4a4a4",
"#1 c #6e6e6e",
"#2 c #6a6a6a",
"#3 c #9c9c9c",
"#4 c #d0d0d0",
"#5 c #c7c7c7",
"#6 c #919191",
"#7 c #c5c5c5",
"#8 c #131313",
"#9 c #131313",
"a. c #c3c3c3",
"a# c #9f9f9f",
"aa c #d2d2d2",
"ab c #8b8b8b",
"ac c #8a8a8a",
"ad c #bebebe",
"ae c #bdbdbd",
"af c #525252",
"ag c #868686",
"ah c #828282",
"ai c #b6b6b6",
"aj c #fbfbfb",
"ak c #4a4a4a",
"al c #494949",
"am c #7e7e7e",
"an c #484848",
"ao c #f9f9f9",
"ap c #474747",
"aq c #f7f7f7",
"ar c #797979",
"as c #787878",
"at c #a9a9a9",
"au c #737373",
"av c #a8a8a8",
"aw c #ececec",
"ax c #393939",
"ay c #6c6c6c",
"az c #6b6b6b",
"aA c #e5e5e5",
"aB c #b0b0b0",
"aC c #9e9e9e",
"aD c #323232",
"aE c #666666",
"aF c #303030",
"aG c #646464",
"aH c #636363",
"aI c #939393",
"aJ c #171717",
"aK c #131313",
"aL c #d2d2d2",
"aM c #212121",
"aN c #565656",
"aO c #1e1e1e",
"aP c #535353",
"aQ c #878787",
"aR c #515151",
"aS c #848484",
"aT c #4e4e4e",
"aU c #ffffff",
"aV c #4d4d4d",
"aW c #818181",
"aX c #5c5c5c",
"aY c #151515",
"aZ c #5b5b5b",
"a0 c #141414",
"a1 c #8f8f8f",
"a2 c #111111",
"a3 c #464646",
"a4 c #101010",
"a5 c #c1c1c1",
"a6 c #f5f5f5",
"a7 c #bfbfbf",
"a8 c #414141",
"a9 c #3f3f3f",
"b. c #3e3e3e",
"b# c #717171",
"ba c #3b3b3b",
"bb c #6f6f6f",
"bc c #e9e9e9",
"bd c #363636",
"be c #343434",
"bf c #afafaf",
"bg c #676767",
"bh c #303030",
"bi c #e1e1e1",
"bj c #2e2e2e",
"bk c #626262",
"bl c #2c2c2c",
"bm c #5f5f5f",
"bn c #dadada",
"bo c #a2a2a2",
"bp c #262626",
"bq c #6c6c6c",
"br c #a0a0a0",
"bs c #5a5a5a",
"bt c #242424",
"bu c #d5d5d5",
"bv c #575757",
"bw c #555555",
"bx c #8a8a8a",
"by c #d1d1d1",
"bz c #1e1e1e",
"bA c #cfcfcf",
"bB c #525252",
"bC c #979797",
"bD c #505050",
"bE c #1a1a1a",
"bF c #4f4f4f",
"bG c #191919",
"bH c #828282",
"bI c #c9c9c9",
"bJ c #4c4c4c",
"bK c #161616",
"bL c #141414",
"bM c #141414",
"bN c #c5c5c5",
"bO c #101010",
"bP c #bdbdbd",
"bQ c #767676",
"bR c #0a0a0a",
"bS c #bbbbbb",
"bT c #858585",
"bU c #858585",
"bV c #b8b8b8",
"bW c #4b4b4b",
"bX c #808080",
"bY c #4a4a4a",
"bZ c #b5b5b5",
"b0 c #373737",
"b1 c #7d7d7d",
"b2 c #b2b2b2",
/* pixels */
"#U#U#U#U#U#U#U#U#U#U#U#U#U#U#U#U#U#U#U#U#U#U#U#U#U#U#U#U#U#U#U#U#U#U#U#U#U#U#U#U#U#U#U",
"#U#U#U#U#U#U#U#U#U#U#U#U#U#U#U#U#U#Gbpab#UboaEb.axb0aNbU#U#U#U#U#U#U#U#U#U#U#U#U#U#U#U",
"#U#U#U#U#U#U#U#U#U#U#U#U#U#U#U#WbWbM#.b0.Gbp.8aK#.bM#.bMbzak#C#U#U#U#U#U#U#U#U#U#U#U#U",
"#U#U#U#U#U#U#U#U#U#U#U#U#Uar.WbMbMbM#zaO#.bMbMbMbMbMbMbMaJaO.o#U#U#U#U#U#U#U#U#U#U#U#U",
"#U#U#U#U#U#U#U#U#U#Uad.wbp#.#.bMbM#u#zbMbMbMbMbMbMbMbKaO#xaY.U#U#U#U#U#U#U#U#U#U#U#U#U",
"#U#U#U#U#U#U#U#U#Ua6aj.6.8bMbMbMbMacaL#PbLbMbMbMbM#DbzbKbMbM.G#U#U#U#U#U#U#U#U#U#U#U#U",
"#U#U#U#U#U#U#Uadbcaqbc.5.IbMbMbMbM#nbcao#g.NbFbMbEaObMbMbMaK.6#U#U#U#U#U#U#U#U#U#U#U#U",
"#U#U#U#U#U#U.OaUaobcaA#nb#bMbMbM#KaU#4.M#sawajbb#zbMbMbMbM#9#z.B#U#U#U#U#U#U#U#U#U#U#U",
"#U#U#U#U#U#Uaa#ebc#nbi.OaQbMbMa0#QaU.M.7#5#7.5.KbMbMbMbMbMbM#.#x.B#U#h.W.N#U#U#U#U#U#U",
"#U#U#U#U#U#U.zaF.Y#Vbn#sbuaa#4bA#y.7bNa5#caeat#wbMbMbMbMbMbM#D#xbz#DbMbM#A.G#U#U#U#U#U",
"#U#U#U#U.rbdbO#E.d#sbuaabybA.M.7#5bN#cad.t.u.g#wbMbMbMbMbMbGbz.8bMbMbMbM#8bp.N#U#U#U#U",
"#U#UbZ#e.vbhbMaza6aaby#4.5.5bI#5bNa5ae.u#L#M#O.6bpbL#u#aaNbEbMbMbMbMbMbMbMbMax#U#U#U#U",
"#U#Ubcaoaqbi#Paobn#4bA.M.7#5#7a5#cad.ubV#O.Hbf.a.T#f#7aoaIbEbMbMbMbMbMbMbMbMbKay#U#U#U",
"#U#UaU.Obna6aU#nby.5.7bI.q#F#cadbP.u#N#Obf.A#T.D.c#Xaobf#3a3.8bMbMbMbMbMbMbMbGbm#U#U#U",
"#Uadajbu#sbu#n#4.M#B#5bNa5a7adbS#Lai.H.#.a.Cat#Xbo.V.f.gbC.Ybl#DbMbMbMbMbLbp.X#U#U#U#U",
"#UbAawaaaabybA.M.7#7#F#cad.t.u#LbZ#O.##T#Tav.dboa##v.L.laI#6ar#xbMbMbMbG.PaS#U#U#U#U#U",
"#Ubcbiby#4bA.7bI.qa5.1ad.u#L#M#OaB.#.Dav.dbr.V#v.f.g#C.T#6.YabaP#AbM#D#waK.z#U#U#U#U#U",
"#UbP#0bA#y.7#5#7a5aebS.uai#O.Hbf.a.C.cbobr#v.f.J.N.la1.x#G.3.4bTbJbzaObM#9a9#U#U#U#U#U",
"#U#U#abhbMa5#eadbSai#O.H.#.a.Qb.bdbl.I.Z.l.N.QaIa1.xac.4bT.vay#RbLbMbMbMbM#9#Y#U#U#U#U",
"#U#U#U#U#bad.t.ubV#Obf.a.C.CbJ#RbEbMbK#RazaI#6.x#GbxbT.6.wambhbMbMbMbMbMbM#8a4#HaKar#U",
"#U#U#U#U#bbS#Lai#Obf.a.Dav.pbd.WbMbMbMbMb#.f##ab.3.4ah.9am#QblbMbMbMbMbMbMbMbMbM#9.o#U",
"#U#U#U#U#6#B#N.Hbf#Tat.c.dagbd#wbMbMbMbMa8#Mab.4bT.vamb1aras#I#.bMbMbMbMbMbMbMbM#D.o#U",
"#U#UbZaAa6#cbf.##Tav.dbr.V.Bbd#wbMbVa2aKbM.L#MaS.wbX#aas#h.E.Za2bMbMbMbMbMbMbM#z#Z.o#U",
"#UbZa6aw.ubf#T.Dav#0.V#v.f.vbd#wbFacaObRbMa8#g.vb1#QbQ#h.b.G#1aYbMbMbMbMbM.8#ubdaT.o#U",
"#Uadaobf.A#Tat.c.da#.f#3.N.Tba#ibMbfbj#HbMbMaU.Y#aasau#Y.Gbq#2aX#obtaObLaJbpbabWaP.o#U",
"#UbZaU.t.Dav#Xbo.V#3.JbC.Q#6aN.0bMbkaObRbMbMbN#ObQ#h.Gbqaz#m.haH#r.S.XaM.P#JbFbB.y.o#U",
"#U#Ubn#Vbr.V.f.g.LaI.T.x.Yab.4.iasbMbMbMbMbMbS.a.Gaybg.hbk#r.naX#t.Z.2#faRaVapbt#Y#U#U",
"#U#Uad#g.d.f.LbC.l.p.x#GacaQbT.TaabhbMbMbMaRa6.waz#maH#qbmaXaZbvaN.saR.yak#dbt#Y#U#U#U",
"#U#U#UaU#v.N.laI.T##ab.4aQ.6.w.9.c#nbMbM.n#Vbn#lbg.K#r.n.U.Xbw.0aPaRaTal#i#u.r#U#U#U#U",
"#U#U#UaibhbMbMbMak.3.4aSaW.wb1#a.zb2aUaUaUbPb#.haH#raX#tbv.0.saRbWalanb0#8#i#U#U#U#U#U",
"#U#U#U.V.6.6.6#a.WagbH.wamb1aras#hau.T.p#Q.haG#qbm.nbvaN.2aPbFap#k#i#j#8#.a4.y#U#U#U#U",
"#U#U#U#U#U#U#U#UbgaW.9b1#Q.zbQ.E#W.Gaz#m.K.j#q.SaXbs.0bBaRbF.yb.#Rbpbt#.bM#8#H#U#U#U#U",
"#U#U#U#U#U#U#U#U#Uaub1.z.B.Eb#.G#1#2aEaGbk.RaXbsbvaNaRbFaTak#K.I#zbMbMaYa2aK#Y#U#U#U#U",
"#U#U#U#U#U#U#U#UbN.Eas#h.Ebb.Gbq#l#SaH#r.maZ.X.Z.2aPaTbYan#IbdbEbMbMbMbObO#Y#U#U#U#U#U",
"#U#U#U#U#U#U#U#UawbQ.E#Y.Gbq#2#m.KaH.S.n#tbv.0bBaRbFana3#d#fbl#AbMbMbMa4#Y#U#U#U#U#U#U",
"#U#U#U#U#U#U#U#UbV.nbq#2bg.haH#r.SaXbv.0.sbDbFbWaka3#f#ib.bab0aD#uaJa2#U#U#U#U#U#U#U#U",
"#U#U#U#U#U#U#U#U#Ubla9aGaH.Xb..0#t.X.saRbFbJakap#b#I#i#kaxb0be.IbjaO.k#U#U#U#U#U#U#U#U",
"#U#U#U#U#U#U#U#U#U#GbWbtbF.Wbp#daOa9bDaTbY.ya3#da9be#kaxbe#RaFblaM.Y#U#U#U#U#U#U#U#U#U",
"#U#U#U#U#U#U#U#U#U#U#0bQblbz#a#U.kaxbJakap#b#fbdaO#z#wax.IaF.WaO.Y#U#U#U#U#U#U#U#U#U#U",
"#U#U#U#U#U#U#U#U#U#U#U#U#U#U#U#U#Ubmapa3#da8#i#ibMbMbMaJbl#o#dbr#U#U#U#U#U#U#U#U#U#U#U",
"#U#U#U#U#U#U#U#U#U#U#U#U#U#U#U#U#Ubm#d#f#i#k#k#ibMbMbMbMbpaS#U#U#U#U#U#U#U#U#U#U#U#U#U",
"#U#U#U#U#U#U#U#U#U#U#U#U#U#U#U#U#U#laxbabaaxba#ibzbz#daS#U#U#U#U#U#U#U#U#U#U#U#U#U#U#U",
"#U#U#U#U#U#U#U#U#U#U#U#U#U#U#U#U#U#Ub0b0b0#Z#wbjbg#U#U#U#U#U#U#U#U#U#U#U#U#U#U#U#U#U#U"
};
