

#define bidirected_width 30
#define bidirected_height 11
unsigned char bidirected_bits[] = {
   0x00, 0x00, 0x00, 0x00, 0x00, 0x00, 0x00, 0x00,
   0x20, 0x00, 0x00, 0x01, 0x30, 0x00, 0x00, 0x03, 0x38, 0x00, 0x00, 0x07,
   0xfc, 0xff, 0xff, 0x0f, 0x38, 0x00, 0x00, 0x07, 0x30, 0x00, 0x00, 0x03,
   0x20, 0x00, 0x00, 0x01, 0x00, 0x00, 0x00, 0x00,
   0x00, 0x00, 0x00, 0x00};
