#define circle_width 30
#define circle_height 15
unsigned char circle_bits[] = {
   0x00, 0x00, 0x00, 0x00, 0x00, 0x00, 0x00, 0x00, 0x00, 0xf0, 0x01, 0x00,
   0x00, 0x08, 0x02, 0x00, 0x00, 0x04, 0x04, 0x00, 0x00, 0x02, 0x08, 0x00,
   0x00, 0x02, 0x08, 0x00, 0x00, 0x02, 0x08, 0x00, 0x00, 0x02, 0x08, 0x00,
   0x00, 0x02, 0x08, 0x00, 0x00, 0x04, 0x04, 0x00, 0x00, 0x08, 0x02, 0x00,
   0x00, 0xf0, 0x01, 0x00, 0x00, 0x00, 0x00, 0x00, 0x00, 0x00, 0x00, 0x00};
