
#define elab_c_width 20
#define elab_c_height 20
unsigned char elab_c_bits[] = {
   0x00, 0x00, 0x00, 0x00, 0x00, 0x00, 0x00, 0xc0, 0x03, 0x00, 0x00, 0x03,
   0x00, 0x80, 0x02, 0x00, 0x40, 0x02, 0x00, 0x20, 0x00, 0x00, 0x10, 0x00,
   0x00, 0x0a, 0x00, 0x00, 0x02, 0x00, 0x80, 0x0f, 0x00, 0x00, 0x02, 0x00,
   0x80, 0x02, 0x00, 0x40, 0x00, 0x00, 0x20, 0x00, 0x00, 0x10, 0x00, 0x00,
   0x08, 0x00, 0x00, 0x04, 0x00, 0x00, 0x00, 0x00, 0x00, 0x00, 0x00, 0x00};
