
#define elab_r_width 20
#define elab_r_height 20
unsigned char elab_r_bits[] = {
   0x00, 0x00, 0x00, 0x00, 0x00, 0x00, 0x00, 0xc0, 0x03, 0x00, 0x00, 0x03,
   0x00, 0x80, 0x02, 0x00, 0x40, 0x02, 0x00, 0x20, 0x00, 0x00, 0x10, 0x00,
   0x00, 0x08, 0x00, 0x00, 0x04, 0x00, 0x00, 0x02, 0x00, 0x00, 0x89, 0x00,
   0x80, 0x50, 0x00, 0x40, 0x20, 0x00, 0x20, 0x50, 0x00, 0x10, 0x88, 0x00,
   0x08, 0x00, 0x00, 0x04, 0x00, 0x00, 0x00, 0x00, 0x00, 0x00, 0x00, 0x00};
