
#define elab_l_width 20
#define elab_l_height 20
unsigned char elab_l_bits[] = {
   0x00, 0x00, 0x00, 0x00, 0x00, 0x00, 0x00, 0xc0, 0x03, 0x00, 0x00, 0x03,
   0x10, 0x81, 0x02, 0xa0, 0x40, 0x02, 0x40, 0x20, 0x00, 0xa0, 0x10, 0x00,
   0x10, 0x09, 0x00, 0x00, 0x04, 0x00, 0x00, 0x02, 0x00, 0x00, 0x01, 0x00,
   0x80, 0x00, 0x00, 0x40, 0x00, 0x00, 0x20, 0x00, 0x00, 0x10, 0x00, 0x00,
   0x08, 0x00, 0x00, 0x04, 0x00, 0x00, 0x00, 0x00, 0x00, 0x00, 0x00, 0x00};
