#define ellipse_width 30
#define ellipse_height 15
unsigned char ellipse_bits[] = {
   0x00, 0x00, 0x00, 0x00, 0x00, 0x00, 0x00, 0x00, 0x00, 0xf8, 0x07, 0x00,
   0x00, 0x07, 0x38, 0x00, 0xc0, 0x00, 0xc0, 0x00, 0x20, 0x00, 0x00, 0x01,
   0x10, 0x00, 0x00, 0x02, 0x10, 0x00, 0x00, 0x02, 0x10, 0x00, 0x00, 0x02,
   0x20, 0x00, 0x00, 0x01, 0xc0, 0x00, 0xc0, 0x00, 0x00, 0x07, 0x38, 0x00,
   0x00, 0xf8, 0x07, 0x00, 0x00, 0x00, 0x00, 0x00, 0x00, 0x00, 0x00, 0x00};
