#define mid_redirected_width 30
#define mid_redirected_height 11
unsigned char mid_redirected_bits[] = {
   0x00, 0x00, 0x00, 0x00, 0x00, 0x00, 0x00, 0x00, 0x00, 0x00, 0x01, 0x00,
   0x00, 0x80, 0x01, 0x00, 0x00, 0xc0, 0x01, 0x00, 0xfc, 0xff, 0xff, 0x0f,
   0x00, 0xc0, 0x01, 0x00, 0x00, 0x80, 0x01, 0x00, 0x00, 0x00, 0x01, 0x00,
   0x00, 0x00, 0x00, 0x00, 0x00, 0x00, 0x00, 0x00};
