
#define mid_bidirected_width 30
#define mid_bidirected_height 11
unsigned char mid_bidirected_bits[] = {
   0x00, 0x00, 0x00, 0x00, 0x00, 0x00, 0x00, 0x00,
   0x00, 0x08, 0x04, 0x00, 0x00, 0x18, 0x06, 0x00, 0x00, 0x38, 0x07, 0x00,
   0xfc, 0xff, 0xff, 0x0f, 0x00, 0x38, 0x07, 0x00, 0x00, 0x18, 0x06, 0x00,
   0x00, 0x08, 0x04, 0x00, 0x00, 0x00, 0x00, 0x00,
   0x00, 0x00, 0x00, 0x00};

