#define mid_directed_width 30
#define mid_directed_height 11
unsigned char mid_directed_bits[] = {
   0x00, 0x00, 0x00, 0x00, 0x00, 0x00, 0x00, 0x00, 0x00, 0x20, 0x00, 0x00,
   0x00, 0x60, 0x00, 0x00, 0x00, 0xe0, 0x00, 0x00, 0xfc, 0xff, 0xff, 0x0f,
   0x00, 0xe0, 0x00, 0x00, 0x00, 0x60, 0x00, 0x00, 0x00, 0x20, 0x00, 0x00,
   0x00, 0x00, 0x00, 0x00, 0x00, 0x00, 0x00, 0x00};
