
#define nlab_c_width 20
#define nlab_c_height 20
unsigned char nlab_c_bits[] = {
   0x40, 0x20, 0x00, 0x00, 0x00, 0x00, 0x40, 0x20, 0x00, 0x00, 0x00, 0x00,
   0x40, 0x20, 0x00, 0x00, 0x00, 0x00, 0xd5, 0xbf, 0x0a, 0x40, 0x20, 0x00,
   0x40, 0x29, 0x00, 0x40, 0x26, 0x00, 0x40, 0x26, 0x00, 0x40, 0x29, 0x00,
   0x40, 0x20, 0x00, 0xd5, 0xbf, 0x0a, 0x00, 0x00, 0x00, 0x40, 0x20, 0x00,
   0x00, 0x00, 0x00, 0x40, 0x20, 0x00, 0x00, 0x00, 0x00, 0x40, 0x20, 0x00};
