
#define nlab_lb_width 20
#define nlab_lb_height 20
unsigned char nlab_lb_bits[] = {
   0x40, 0x20, 0x00, 0x00, 0x00, 0x00, 0x40, 0x20, 0x00, 0x00, 0x00, 0x00,
   0x40, 0x20, 0x00, 0x00, 0x00, 0x00, 0xd5, 0xbf, 0x0a, 0x40, 0x20, 0x00,
   0x40, 0x20, 0x00, 0x40, 0x20, 0x00, 0x40, 0x20, 0x00, 0x40, 0x20, 0x00,
   0x40, 0x20, 0x00, 0xd5, 0xbf, 0x0a, 0x00, 0x00, 0x00, 0x52, 0x20, 0x00,
   0x0c, 0x00, 0x00, 0x4c, 0x20, 0x00, 0x12, 0x00, 0x00, 0x40, 0x20, 0x00};
