
#define nlab_l_width 20
#define nlab_l_height 20
unsigned char nlab_l_bits[] = {
   0x40, 0x20, 0x00, 0x00, 0x00, 0x00, 0x40, 0x20, 0x00, 0x00, 0x00, 0x00,
   0x40, 0x20, 0x00, 0x00, 0x00, 0x00, 0xd5, 0xbf, 0x0a, 0x40, 0x20, 0x00,
   0x52, 0x20, 0x00, 0x4c, 0x20, 0x00, 0x4c, 0x20, 0x00, 0x52, 0x20, 0x00,
   0x40, 0x20, 0x00, 0xd5, 0xbf, 0x0a, 0x00, 0x00, 0x00, 0x40, 0x20, 0x00,
   0x00, 0x00, 0x00, 0x40, 0x20, 0x00, 0x00, 0x00, 0x00, 0x40, 0x20, 0x00};
