
#define nlab_t_width 20
#define nlab_t_height 20
unsigned char nlab_t_bits[] = {
   0x40, 0x20, 0x00, 0x00, 0x09, 0x00, 0x40, 0x26, 0x00, 0x00, 0x06, 0x00,
   0x40, 0x29, 0x00, 0x00, 0x00, 0x00, 0xd5, 0xbf, 0x0a, 0x40, 0x20, 0x00,
   0x40, 0x20, 0x00, 0x40, 0x20, 0x00, 0x40, 0x20, 0x00, 0x40, 0x20, 0x00,
   0x40, 0x20, 0x00, 0xd5, 0xbf, 0x0a, 0x00, 0x00, 0x00, 0x40, 0x20, 0x00,
   0x00, 0x00, 0x00, 0x40, 0x20, 0x00, 0x00, 0x00, 0x00, 0x40, 0x20, 0x00};
