
#define nlab_r_width 20
#define nlab_r_height 20
unsigned char nlab_r_bits[] = {
   0x40, 0x20, 0x00, 0x00, 0x00, 0x00, 0x40, 0x20, 0x00, 0x00, 0x00, 0x00,
   0x40, 0x20, 0x00, 0x00, 0x00, 0x00, 0xd5, 0xbf, 0x0a, 0x40, 0x20, 0x00,
   0x40, 0xa0, 0x04, 0x40, 0x20, 0x03, 0x40, 0x20, 0x03, 0x40, 0xa0, 0x04,
   0x40, 0x20, 0x00, 0xd5, 0xbf, 0x0a, 0x00, 0x00, 0x00, 0x40, 0x20, 0x00,
   0x00, 0x00, 0x00, 0x40, 0x20, 0x00, 0x00, 0x00, 0x00, 0x40, 0x20, 0x00};
