#define ovalrect_width 30
#define ovalrect_height 15
unsigned char ovalrect_bits[] = {
   0x00, 0x00, 0x00, 0x00, 0x00, 0x00, 0x00, 0x00, 0x00, 0xff, 0x3f, 0x00,
   0xc0, 0x00, 0xc0, 0x00, 0x20, 0x00, 0x00, 0x01, 0x20, 0x00, 0x00, 0x01,
   0x10, 0x00, 0x00, 0x02, 0x10, 0x00, 0x00, 0x02, 0x10, 0x00, 0x00, 0x02,
   0x20, 0x00, 0x00, 0x01, 0x20, 0x00, 0x00, 0x01, 0xc0, 0x00, 0xc0, 0x00,
   0x00, 0xff, 0x3f, 0x00, 0x00, 0x00, 0x00, 0x00, 0x00, 0x00, 0x00, 0x00};
