#define rectangle_width 30
#define rectangle_height 15
unsigned char rectangle_bits[] = {
   0x00, 0x00, 0x00, 0x00, 0x00, 0x00, 0x00, 0x00, 0xf0, 0xff, 0xff, 0x03,
   0x10, 0x00, 0x00, 0x02, 0x10, 0x00, 0x00, 0x02, 0x10, 0x00, 0x00, 0x02,
   0x10, 0x00, 0x00, 0x02, 0x10, 0x00, 0x00, 0x02, 0x10, 0x00, 0x00, 0x02,
   0x10, 0x00, 0x00, 0x02, 0x10, 0x00, 0x00, 0x02, 0x10, 0x00, 0x00, 0x02,
   0xf0, 0xff, 0xff, 0x03, 0x00, 0x00, 0x00, 0x00, 0x00, 0x00, 0x00, 0x00};
