#define rhombus_width 30
#define rhombus_height 15
unsigned char rhombus_bits[] = {
   0x00, 0x00, 0x00, 0x00, 0x00, 0x00, 0x00, 0x00, 0x00, 0xc0, 0x00, 0x00,
   0x00, 0x30, 0x03, 0x00, 0x00, 0x0c, 0x0c, 0x00, 0x00, 0x03, 0x30, 0x00,
   0xc0, 0x00, 0xc0, 0x00, 0x30, 0x00, 0x00, 0x03, 0xc0, 0x00, 0xc0, 0x00,
   0x00, 0x03, 0x30, 0x00, 0x00, 0x0c, 0x0c, 0x00, 0x00, 0x30, 0x03, 0x00,
   0x00, 0xc0, 0x00, 0x00, 0x00, 0x00, 0x00, 0x00, 0x00, 0x00, 0x00, 0x00};
