#define roundrect_width 30
#define roundrect_height 15
unsigned char roundrect_bits[] = {
   0x00, 0x00, 0x00, 0x00, 0x00, 0x00, 0x00, 0x00, 0xc0, 0xff, 0xff, 0x00,
   0x20, 0x00, 0x00, 0x01, 0x10, 0x00, 0x00, 0x02, 0x10, 0x00, 0x00, 0x02,
   0x10, 0x00, 0x00, 0x02, 0x10, 0x00, 0x00, 0x02, 0x10, 0x00, 0x00, 0x02,
   0x10, 0x00, 0x00, 0x02, 0x10, 0x00, 0x00, 0x02, 0x20, 0x00, 0x00, 0x01,
   0xc0, 0xff, 0xff, 0x00, 0x00, 0x00, 0x00, 0x00, 0x00, 0x00, 0x00, 0x00};
