/* XPM */
static char *EXIT[] = {
/* width height num_colors chars_per_pixel */
"    43    43       63            1",
/* colors */
". c #dfdfdf",
"# c #cdcdcd",
"a c #ededed",
"b c #d5d5d5",
"c c #515151",
"d c #9c9c9c",
"e c #fdfdfd",
"f c #e5e5e5",
"g c #080808",
"h c #949494",
"i c #a4a4a4",
"j c #bcbcbc",
"k c #414141",
"l c #848484",
"m c #8c8c8c",
"n c #dddddd",
"o c #f5f5f5",
"p c #202020",
"q c #000000",
"r c #282828",
"s c #b4b4b4",
"t c #303030",
"u c #595959",
"v c #999999",
"w c #717171",
"x c #696969",
"y c #616161",
"z c #2a2a2a",
"A c #d9d9d9",
"B c #b8b8b8",
"C c #494949",
"D c #101010",
"E c #0e0e0e",
"F c #919191",
"G c #b0b0b0",
"H c #989898",
"I c #181818",
"J c #888888",
"K c #797979",
"L c #575757",
"M c #c5c5c5",
"N c #fafafa",
"O c #a6a6a6",
"P c #242424",
"Q c #e9e9e9",
"R c #2d2d2d",
"S c #383838",
"T c #f7f7f7",
"U c #969696",
"V c #737373",
"W c #e7e7e7",
"X c #c1c1c1",
"Y c #a2a2a2",
"Z c #cacaca",
"0 c #4e4e4e",
"1 c #7f7f7f",
"2 c #d1d1d1",
"3 c #adadad",
"4 c #a5a5a5",
"5 c #cfcfcf",
"6 c #f3f3f3",
"7 c #7f7f7f",
"8 c #535353",
/* pixels */
"...........................................",
"...............#a..........................",
"...............abc.........................",
"...............efch.............ia.........",
"..............jefhgl...........bebg........",
"..............nonbpqc.........aeahr........",
"..............aan.ltgpcul...vneooik........",
"..............onmlxlyykzpr.eeef#Alk........",
"..............eBcurprtDEggxFG.Hi#ct........",
".............bskpEqqqqqqqqqqqkcKhDC........",
"........d...bjpqqqqqqqqqqqqqqqpkxIy........",
"........oCLlsrqqqqqqqqqqqqqqqqqDztt.....Mbi",
".......nehmyDqqqqqqqqqqqqqqqqqqqDciaaaeeeMm",
"..aonbbejdygqqqqqqqqqqqqqqqqqqqqqCvooNoaOk.",
"..beeeeeswDqqqqqqqqqqqqqqqqqqqqqqPwafAaQRC.",
"..#e#fnMirqqqqqqqqqqqqqqqqqqqqqqqgcof#nhqh.",
"...e##silgqqqqqqqqqqqqqqqqqqqqqqqqSTf#jSt..",
"...ffshwCqqqqqqqqqqqqqqqqqqqqqqqqqPoajUgw..",
"....ajHVRqqqqqqqqqqqqqqqqqqqqqqqqqqWfnSc...",
"....XoYwSqqqqqqqqqqqqqqqqqqqqqqqqqqAnhq....",
".....ajKSqqqqqqqqqqqqqqqqqqqqqqqqqqZfrt....",
".....MoK0qqqqqqqqqqqqqqqqqqqqqqqqqqjmgh....",
".....seswqqqqqqqqqqqqqqqqqqqqqqqqqq1gy.....",
".....aoiuqqqqqqqqqqqqqqqqqqqqqqqqqqSc......",
"....ne#mkqqqqqqqqqqqqqqqqqqqqqqqqqqCC......",
"...jeajxtqqqqqqqqqqqqqqqqqqqqqqqqqqrg......",
"...aojHKCqqqqqqqqqqqqqqqqqqqqqqqqqEnDk.....",
"...eosKCSpqqqqqqqqqqqqqqqqqqqqqqqqy2Kr.....",
"..#a3tDgDCgqqqqqqqqqqqqqqqqqqqqqqrdXrr.....",
"..fMrDcm.wlEqqqqqqqqqqqqqqqqqqqqgxaiSr.....",
"..aupF4..mosgqqqqqqqqqqqqqqqqqqqkfeitk.....",
"..Mpd.....MexPqqqqqqqqqqqqqqqqgCMeTBur.....",
"..wl......beiyrDgqqqqqqqqqqqruvneof5KDw....",
"..........MofUkrDqqqqqqqqqIKsfA6ofn5spk....",
"..........ja6jlkkpgqqqqqgSjaeaAafb###uqd...",
"..........ifeMFml7HUliiwktsae.llMaW.hcIk...",
"..........iMeAidhm8Iqqqrrgwbjqqt...iUkgr...",
"...........BeWj.iOqScl....cnEqw............",
"............Qebjsmc.......hwqy.............",
"............dao2Myh.........m..............",
".............GaT#y.........................",
"..............OXeY.........................",
"...............mKyh........................"
};
