/* XPM */
static char *INFO[] = {
/* width height num_colors chars_per_pixel */
"    43    43       46            1",
/* colors */
". c #dfdfdf",
"# c #606060",
"a c #4a4a4a",
"b c #747474",
"c c #1b1b1b",
"d c #131313",
"e c #222222",
"f c #2c2c2c",
"g c #262626",
"h c #2a2a2a",
"i c #4e4e4e",
"j c #191919",
"k c #3e3e3e",
"l c #494949",
"m c #4d4d4d",
"n c #4a4a4a",
"o c #3f3f3f",
"p c #565656",
"q c #333333",
"r c #434343",
"s c #616161",
"t c #d8d8d8",
"u c #ededed",
"v c #dddddd",
"w c #676767",
"x c #515151",
"y c #343434",
"z c #e5e5e5",
"A c #c5c5c5",
"B c #969696",
"C c #cacaca",
"D c #212121",
"E c #555555",
"F c #828282",
"G c #cfcfcf",
"H c #888888",
"I c #171717",
"J c #565656",
"K c #595959",
"L c #f5f5f5",
"M c #8e8e8e",
"N c #d5d5d5",
"O c #5d5d5d",
"P c #5b5b5b",
"Q c #fdfdfd",
"R c #1a1a1a",
/* pixels */
"...........................................",
"...........................................",
"...........................................",
"...........................................",
"...........................................",
"..................##aaaa#b.................",
"................cccceffffghii..............",
"..............jjffllllmmmmmnnop............",
"............ojjjffllllmmmmmnnopp...........",
".........ejjylllllttzAAABrxxxxxxx##........",
".........ejjylllllttzAAABrxxxxxxx##........",
"........qjkklllllluuAAAACDxxxxxxxEE........",
".......pdyllllllllGGAACCHIxxxxxxEEE........",
".......pdyllllllllGGAACCHIxxxxxxEEE........",
".......cglllllllmmwwBCHHDDxxxxEEEEEbb......",
"......pdkllllllmmmmmrDIIDrxxxEEEEEEKK......",
"......pdkllllllmmmmmrDIIDrxxxEEEEEEKK......",
".....qqglllllmmwuuuuuuLLLxxEEEEEEJJKKM.....",
".....jjyllllmmmwnnCCCNNNNIEEEEEEJKKKKs.....",
".....ddrllmmmmmmnnuuNNNNvIEEEEJJKKKKKK.....",
".....jjllmmmmmmmxxLLNNvvvIEEEJKKKKKKKK.....",
".....eelmmmmmmmxxxLLNvvvvIEJJKKKKKKKKK.....",
".....eelmmmmmmmxxxLLNvvvvIEJJKKKKKKKKK.....",
".....eemmmmmmxxxxxLLvvvvzIJKKKKKKKKKKO.....",
".....ccmmmmmxxxxxxLLvvzzzIKKKKKKKKKOOO.....",
".....ccmmmmmxxxxxxLLvvzzzIKKKKKKKKKOOO.....",
".....pprmxxxxxxxxxLLzzzzzIKKKKKKKOOOO......",
".....pprmxxxxxxxxxLLzzzzzIKKKKKKKOOOO......",
".......hxxxxxxxxEELLzzzzuIKKKKKKOOOOO......",
".......ixxxxxxxEEELLzzuuuIKKKKOOOOO........",
".......ixxxxxxxEEELLzzuuuIKKKKOOOOO........",
"........kxxxxEEEEELLuuuuuIKKKOOOOOO........",
"........HPxxEEEELLLLuuLLLLQOOOOOOww........",
".........PxxEEEELLLLuuLLLLQOOOOOOww........",
".........bPPEEEEJJIIIIIIIRRRROOOw..........",
".............EEJKKKKKKKKKOOOOObb...........",
"...............sKKKKKKKKOOOww..............",
"..................FFFKFFM..................",
"...........................................",
"...........................................",
"...........................................",
"...........................................",
"..........................................."
};
